<svg version="1.2" xmlns="http://www.w3.org/2000/svg" viewBox="0 0 350 140" width="350" height="140">
	<title>a-svg</title>
	<defs>
		<clipPath clipPathUnits="userSpaceOnUse" id="cp1">
			<path d="m0 0h350v140h-350z"/>
		</clipPath>
		<linearGradient id="g1" x1="474.7" y1="2.8" x2="474.7" y2="872.2" gradientUnits="userSpaceOnUse">
			<stop offset="0" stop-color="#0989b4" stop-opacity="0"/>
			<stop offset="1" stop-color="#53ffee"/>
		</linearGradient>
		<linearGradient id="g2" x1="429.1" y1="2.8" x2="429.1" y2="872.2" gradientUnits="userSpaceOnUse">
			<stop offset="0" stop-color="#0989b4" stop-opacity="0"/>
			<stop offset="1" stop-color="#53ffee"/>
		</linearGradient>
		<linearGradient id="g3" x1="566" y1="2.8" x2="566" y2="872.2" gradientUnits="userSpaceOnUse">
			<stop offset="0" stop-color="#0989b4" stop-opacity="0"/>
			<stop offset="1" stop-color="#53ffee"/>
		</linearGradient>
		<linearGradient id="g4" x1="520.4" y1="2.8" x2="520.4" y2="872.2" gradientUnits="userSpaceOnUse">
			<stop offset="0" stop-color="#0989b4" stop-opacity="0"/>
			<stop offset="1" stop-color="#53ffee"/>
		</linearGradient>
		<linearGradient id="g5" x1="657.3" y1="2.8" x2="657.3" y2="872.2" gradientUnits="userSpaceOnUse">
			<stop offset="0" stop-color="#0989b4" stop-opacity="0"/>
			<stop offset="1" stop-color="#53ffee"/>
		</linearGradient>
		<linearGradient id="g6" x1="611.7" y1="2.8" x2="611.7" y2="872.2" gradientUnits="userSpaceOnUse">
			<stop offset="0" stop-color="#0989b4" stop-opacity="0"/>
			<stop offset="1" stop-color="#53ffee"/>
		</linearGradient>
		<linearGradient id="g7" x1="748.6" y1="2.8" x2="748.6" y2="872.2" gradientUnits="userSpaceOnUse">
			<stop offset="0" stop-color="#0989b4" stop-opacity="0"/>
			<stop offset="1" stop-color="#53ffee"/>
		</linearGradient>
		<linearGradient id="g8" x1="703" y1="2.8" x2="703" y2="872.2" gradientUnits="userSpaceOnUse">
			<stop offset="0" stop-color="#0989b4" stop-opacity="0"/>
			<stop offset="1" stop-color="#53ffee"/>
		</linearGradient>
		<linearGradient id="g9" x1="474.7" y1="98.5" x2="474.7" y2="967.8" gradientUnits="userSpaceOnUse">
			<stop offset="0" stop-color="#0989b4" stop-opacity="0"/>
			<stop offset="1" stop-color="#53ffee"/>
		</linearGradient>
		<linearGradient id="g10" x1="429.1" y1="98.5" x2="429.1" y2="967.8" gradientUnits="userSpaceOnUse">
			<stop offset="0" stop-color="#0989b4" stop-opacity="0"/>
			<stop offset="1" stop-color="#53ffee"/>
		</linearGradient>
		<linearGradient id="g11" x1="566" y1="98.5" x2="566" y2="967.8" gradientUnits="userSpaceOnUse">
			<stop offset="0" stop-color="#0989b4" stop-opacity="0"/>
			<stop offset="1" stop-color="#53ffee"/>
		</linearGradient>
		<linearGradient id="g12" x1="520.4" y1="98.5" x2="520.4" y2="967.8" gradientUnits="userSpaceOnUse">
			<stop offset="0" stop-color="#0989b4" stop-opacity="0"/>
			<stop offset="1" stop-color="#53ffee"/>
		</linearGradient>
		<linearGradient id="g13" x1="657.3" y1="98.5" x2="657.3" y2="967.8" gradientUnits="userSpaceOnUse">
			<stop offset="0" stop-color="#0989b4" stop-opacity="0"/>
			<stop offset="1" stop-color="#53ffee"/>
		</linearGradient>
		<linearGradient id="g14" x1="611.7" y1="98.5" x2="611.7" y2="967.8" gradientUnits="userSpaceOnUse">
			<stop offset="0" stop-color="#0989b4" stop-opacity="0"/>
			<stop offset="1" stop-color="#53ffee"/>
		</linearGradient>
		<linearGradient id="g15" x1="748.6" y1="98.5" x2="748.6" y2="967.8" gradientUnits="userSpaceOnUse">
			<stop offset="0" stop-color="#0989b4" stop-opacity="0"/>
			<stop offset="1" stop-color="#53ffee"/>
		</linearGradient>
		<linearGradient id="g16" x1="703" y1="98.5" x2="703" y2="967.8" gradientUnits="userSpaceOnUse">
			<stop offset="0" stop-color="#0989b4" stop-opacity="0"/>
			<stop offset="1" stop-color="#53ffee"/>
		</linearGradient>
		<linearGradient id="g17" x1="474.7" y1="50.6" x2="474.7" y2="920" gradientUnits="userSpaceOnUse">
			<stop offset="0" stop-color="#0989b4" stop-opacity="0"/>
			<stop offset="1" stop-color="#53ffee"/>
		</linearGradient>
		<linearGradient id="g18" x1="429.1" y1="50.6" x2="429.1" y2="920" gradientUnits="userSpaceOnUse">
			<stop offset="0" stop-color="#0989b4" stop-opacity="0"/>
			<stop offset="1" stop-color="#53ffee"/>
		</linearGradient>
		<linearGradient id="g19" x1="566" y1="50.6" x2="566" y2="920" gradientUnits="userSpaceOnUse">
			<stop offset="0" stop-color="#0989b4" stop-opacity="0"/>
			<stop offset="1" stop-color="#53ffee"/>
		</linearGradient>
		<linearGradient id="g20" x1="520.4" y1="50.6" x2="520.4" y2="920" gradientUnits="userSpaceOnUse">
			<stop offset="0" stop-color="#0989b4" stop-opacity="0"/>
			<stop offset="1" stop-color="#53ffee"/>
		</linearGradient>
		<linearGradient id="g21" x1="657.3" y1="50.6" x2="657.3" y2="920" gradientUnits="userSpaceOnUse">
			<stop offset="0" stop-color="#0989b4" stop-opacity="0"/>
			<stop offset="1" stop-color="#53ffee"/>
		</linearGradient>
		<linearGradient id="g22" x1="611.7" y1="50.6" x2="611.7" y2="920" gradientUnits="userSpaceOnUse">
			<stop offset="0" stop-color="#0989b4" stop-opacity="0"/>
			<stop offset="1" stop-color="#53ffee"/>
		</linearGradient>
		<linearGradient id="g23" x1="748.6" y1="50.6" x2="748.6" y2="920" gradientUnits="userSpaceOnUse">
			<stop offset="0" stop-color="#0989b4" stop-opacity="0"/>
			<stop offset="1" stop-color="#53ffee"/>
		</linearGradient>
		<linearGradient id="g24" x1="703" y1="50.6" x2="703" y2="920" gradientUnits="userSpaceOnUse">
			<stop offset="0" stop-color="#0989b4" stop-opacity="0"/>
			<stop offset="1" stop-color="#53ffee"/>
		</linearGradient>
		<linearGradient id="g25" x1="497.6" y1="25.6" x2="497.6" y2="894.9" gradientUnits="userSpaceOnUse">
			<stop offset="0" stop-color="#0989b4" stop-opacity="0"/>
			<stop offset="1" stop-color="#53ffee"/>
		</linearGradient>
		<linearGradient id="g26" x1="451.9" y1="25.6" x2="451.9" y2="894.9" gradientUnits="userSpaceOnUse">
			<stop offset="0" stop-color="#0989b4" stop-opacity="0"/>
			<stop offset="1" stop-color="#53ffee"/>
		</linearGradient>
		<linearGradient id="g27" x1="588.9" y1="25.6" x2="588.9" y2="894.9" gradientUnits="userSpaceOnUse">
			<stop offset="0" stop-color="#0989b4" stop-opacity="0"/>
			<stop offset="1" stop-color="#53ffee"/>
		</linearGradient>
		<linearGradient id="g28" x1="543.2" y1="25.6" x2="543.2" y2="894.9" gradientUnits="userSpaceOnUse">
			<stop offset="0" stop-color="#0989b4" stop-opacity="0"/>
			<stop offset="1" stop-color="#53ffee"/>
		</linearGradient>
		<linearGradient id="g29" x1="680.1" y1="25.6" x2="680.1" y2="894.9" gradientUnits="userSpaceOnUse">
			<stop offset="0" stop-color="#0989b4" stop-opacity="0"/>
			<stop offset="1" stop-color="#53ffee"/>
		</linearGradient>
		<linearGradient id="g30" x1="634.5" y1="25.6" x2="634.5" y2="894.9" gradientUnits="userSpaceOnUse">
			<stop offset="0" stop-color="#0989b4" stop-opacity="0"/>
			<stop offset="1" stop-color="#53ffee"/>
		</linearGradient>
		<linearGradient id="g31" x1="771.4" y1="25.6" x2="771.4" y2="894.9" gradientUnits="userSpaceOnUse">
			<stop offset="0" stop-color="#0989b4" stop-opacity="0"/>
			<stop offset="1" stop-color="#53ffee"/>
		</linearGradient>
		<linearGradient id="g32" x1="725.8" y1="25.6" x2="725.8" y2="894.9" gradientUnits="userSpaceOnUse">
			<stop offset="0" stop-color="#0989b4" stop-opacity="0"/>
			<stop offset="1" stop-color="#53ffee"/>
		</linearGradient>
		<linearGradient id="g33" x1="497.6" y1="121.2" x2="497.6" y2="990.6" gradientUnits="userSpaceOnUse">
			<stop offset="0" stop-color="#0989b4" stop-opacity="0"/>
			<stop offset="1" stop-color="#53ffee"/>
		</linearGradient>
		<linearGradient id="g34" x1="451.9" y1="121.2" x2="451.9" y2="990.6" gradientUnits="userSpaceOnUse">
			<stop offset="0" stop-color="#0989b4" stop-opacity="0"/>
			<stop offset="1" stop-color="#53ffee"/>
		</linearGradient>
		<linearGradient id="g35" x1="588.9" y1="121.2" x2="588.9" y2="990.6" gradientUnits="userSpaceOnUse">
			<stop offset="0" stop-color="#0989b4" stop-opacity="0"/>
			<stop offset="1" stop-color="#53ffee"/>
		</linearGradient>
		<linearGradient id="g36" x1="543.2" y1="121.2" x2="543.2" y2="990.6" gradientUnits="userSpaceOnUse">
			<stop offset="0" stop-color="#0989b4" stop-opacity="0"/>
			<stop offset="1" stop-color="#53ffee"/>
		</linearGradient>
		<linearGradient id="g37" x1="680.1" y1="121.2" x2="680.1" y2="990.6" gradientUnits="userSpaceOnUse">
			<stop offset="0" stop-color="#0989b4" stop-opacity="0"/>
			<stop offset="1" stop-color="#53ffee"/>
		</linearGradient>
		<linearGradient id="g38" x1="634.5" y1="121.2" x2="634.5" y2="990.6" gradientUnits="userSpaceOnUse">
			<stop offset="0" stop-color="#0989b4" stop-opacity="0"/>
			<stop offset="1" stop-color="#53ffee"/>
		</linearGradient>
		<linearGradient id="g39" x1="771.4" y1="121.2" x2="771.4" y2="990.6" gradientUnits="userSpaceOnUse">
			<stop offset="0" stop-color="#0989b4" stop-opacity="0"/>
			<stop offset="1" stop-color="#53ffee"/>
		</linearGradient>
		<linearGradient id="g40" x1="725.8" y1="121.2" x2="725.8" y2="990.6" gradientUnits="userSpaceOnUse">
			<stop offset="0" stop-color="#0989b4" stop-opacity="0"/>
			<stop offset="1" stop-color="#53ffee"/>
		</linearGradient>
		<linearGradient id="g41" x1="497.6" y1="73.4" x2="497.6" y2="942.7" gradientUnits="userSpaceOnUse">
			<stop offset="0" stop-color="#0989b4" stop-opacity="0"/>
			<stop offset="1" stop-color="#53ffee"/>
		</linearGradient>
		<linearGradient id="g42" x1="451.9" y1="73.4" x2="451.9" y2="942.7" gradientUnits="userSpaceOnUse">
			<stop offset="0" stop-color="#0989b4" stop-opacity="0"/>
			<stop offset="1" stop-color="#53ffee"/>
		</linearGradient>
		<linearGradient id="g43" x1="588.9" y1="73.4" x2="588.9" y2="942.7" gradientUnits="userSpaceOnUse">
			<stop offset="0" stop-color="#0989b4" stop-opacity="0"/>
			<stop offset="1" stop-color="#53ffee"/>
		</linearGradient>
		<linearGradient id="g44" x1="543.2" y1="73.4" x2="543.2" y2="942.7" gradientUnits="userSpaceOnUse">
			<stop offset="0" stop-color="#0989b4" stop-opacity="0"/>
			<stop offset="1" stop-color="#53ffee"/>
		</linearGradient>
		<linearGradient id="g45" x1="680.1" y1="73.4" x2="680.1" y2="942.7" gradientUnits="userSpaceOnUse">
			<stop offset="0" stop-color="#0989b4" stop-opacity="0"/>
			<stop offset="1" stop-color="#53ffee"/>
		</linearGradient>
		<linearGradient id="g46" x1="634.5" y1="73.4" x2="634.5" y2="942.7" gradientUnits="userSpaceOnUse">
			<stop offset="0" stop-color="#0989b4" stop-opacity="0"/>
			<stop offset="1" stop-color="#53ffee"/>
		</linearGradient>
		<linearGradient id="g47" x1="771.4" y1="73.4" x2="771.4" y2="942.7" gradientUnits="userSpaceOnUse">
			<stop offset="0" stop-color="#0989b4" stop-opacity="0"/>
			<stop offset="1" stop-color="#53ffee"/>
		</linearGradient>
		<linearGradient id="g48" x1="725.8" y1="73.4" x2="725.8" y2="942.7" gradientUnits="userSpaceOnUse">
			<stop offset="0" stop-color="#0989b4" stop-opacity="0"/>
			<stop offset="1" stop-color="#53ffee"/>
		</linearGradient>
	</defs>
	<style>
		.s0 { fill: #ff0000 } 
		.s1 { fill: url(#g1) } 
		.s2 { fill: url(#g2) } 
		.s3 { fill: url(#g3) } 
		.s4 { fill: url(#g4) } 
		.s5 { fill: url(#g5) } 
		.s6 { fill: url(#g6) } 
		.s7 { fill: url(#g7) } 
		.s8 { fill: url(#g8) } 
		.s9 { fill: url(#g9) } 
		.s10 { fill: url(#g10) } 
		.s11 { fill: url(#g11) } 
		.s12 { fill: url(#g12) } 
		.s13 { fill: url(#g13) } 
		.s14 { fill: url(#g14) } 
		.s15 { fill: url(#g15) } 
		.s16 { fill: url(#g16) } 
		.s17 { fill: url(#g17) } 
		.s18 { fill: url(#g18) } 
		.s19 { fill: url(#g19) } 
		.s20 { fill: url(#g20) } 
		.s21 { fill: url(#g21) } 
		.s22 { fill: url(#g22) } 
		.s23 { fill: url(#g23) } 
		.s24 { fill: url(#g24) } 
		.s25 { fill: url(#g25) } 
		.s26 { fill: url(#g26) } 
		.s27 { fill: url(#g27) } 
		.s28 { fill: url(#g28) } 
		.s29 { fill: url(#g29) } 
		.s30 { fill: url(#g30) } 
		.s31 { fill: url(#g31) } 
		.s32 { fill: url(#g32) } 
		.s33 { fill: url(#g33) } 
		.s34 { fill: url(#g34) } 
		.s35 { fill: url(#g35) } 
		.s36 { fill: url(#g36) } 
		.s37 { fill: url(#g37) } 
		.s38 { fill: url(#g38) } 
		.s39 { fill: url(#g39) } 
		.s40 { fill: url(#g40) } 
		.s41 { fill: url(#g41) } 
		.s42 { fill: url(#g42) } 
		.s43 { fill: url(#g43) } 
		.s44 { fill: url(#g44) } 
		.s45 { fill: url(#g45) } 
		.s46 { fill: url(#g46) } 
		.s47 { fill: url(#g47) } 
		.s48 { fill: url(#g48) } 
	</style>
	<g id="Layer">
		<path id="a" fill-rule="evenodd" class="s0" d="m0 0h350v140h-350z"/>
		<g id="Clip-Path" clip-path="url(#cp1)">
			<g id="Layer" style="opacity: .5">
				<g id="Layer">
					<path id="Layer" class="s1" d="m34.6 10.8c0-8.2 6.7-14.8 14.9-14.8 8.2 0 14.8 6.6 14.8 14.8 0 8.2-6.6 14.8-14.8 14.8-8.2 0-14.9-6.6-14.9-14.8z"/>
					<path id="Layer" class="s2" d="m3.8-4c8.2 0 14.9 6.6 14.9 14.8 0 8.2-6.7 14.8-14.9 14.8-8.2 0-14.8-6.6-14.8-14.8 0-8.2 6.6-14.8 14.8-14.8z"/>
					<path id="Layer" class="s3" d="m140.8 25.6c-8.2 0-14.9-6.6-14.9-14.8 0-8.2 6.7-14.8 14.9-14.8 8.2 0 14.8 6.6 14.8 14.8 0 8.2-6.6 14.8-14.8 14.8z"/>
					<path id="Layer" class="s4" d="m110 10.8c0 8.2-6.7 14.8-14.9 14.8-8.2 0-14.8-6.6-14.8-14.8 0-8.2 6.6-14.8 14.8-14.8 8.2 0 14.9 6.6 14.9 14.8z"/>
					<path id="Layer" class="s5" d="m217.2 10.8c0-8.2 6.7-14.8 14.9-14.8 8.2 0 14.8 6.6 14.8 14.8 0 8.2-6.6 14.8-14.8 14.8-8.2 0-14.9-6.6-14.9-14.8z"/>
					<path id="Layer" class="s6" d="m186.4-4c8.2 0 14.8 6.6 14.8 14.8 0 8.2-6.6 14.8-14.8 14.8-8.2 0-14.8-6.6-14.8-14.8 0-8.2 6.6-14.8 14.8-14.8z"/>
					<path id="Layer" class="s7" d="m323.3 25.6c-8.2 0-14.8-6.6-14.8-14.8 0-8.2 6.6-14.8 14.8-14.8 8.2 0 14.9 6.6 14.9 14.8 0 8.2-6.7 14.8-14.9 14.8z"/>
					<path id="Layer" class="s8" d="m292.5 10.8c0 8.2-6.6 14.8-14.8 14.8-8.2 0-14.8-6.6-14.8-14.8 0-8.2 6.6-14.8 14.8-14.8 8.2 0 14.8 6.6 14.8 14.8z"/>
				</g>
				<g id="Layer">
					<path id="Layer" class="s9" d="m34.6 106.4c0-8.2 6.7-14.8 14.9-14.8 8.2 0 14.8 6.6 14.8 14.8 0 8.2-6.6 14.8-14.8 14.8-8.2 0-14.9-6.6-14.9-14.8z"/>
					<path id="Layer" class="s10" d="m3.8 91.6c8.2 0 14.9 6.6 14.9 14.8 0 8.2-6.7 14.8-14.9 14.8-8.2 0-14.8-6.6-14.8-14.8 0-8.2 6.6-14.8 14.8-14.8z"/>
					<path id="Layer" class="s11" d="m140.8 121.2c-8.2 0-14.9-6.6-14.9-14.8 0-8.2 6.7-14.8 14.9-14.8 8.2 0 14.8 6.6 14.8 14.8 0 8.2-6.6 14.8-14.8 14.8z"/>
					<path id="Layer" class="s12" d="m110 106.4c0 8.2-6.7 14.8-14.9 14.8-8.2 0-14.8-6.6-14.8-14.8 0-8.2 6.6-14.8 14.8-14.8 8.2 0 14.9 6.6 14.9 14.8z"/>
					<path id="Layer" class="s13" d="m217.2 106.4c0-8.2 6.7-14.8 14.9-14.8 8.2 0 14.8 6.6 14.8 14.8 0 8.2-6.6 14.8-14.8 14.8-8.2 0-14.9-6.6-14.9-14.8z"/>
					<path id="Layer" class="s14" d="m186.4 91.6c8.2 0 14.8 6.6 14.8 14.8 0 8.2-6.6 14.8-14.8 14.8-8.2 0-14.8-6.6-14.8-14.8 0-8.2 6.6-14.8 14.8-14.8z"/>
					<path id="Layer" class="s15" d="m323.3 121.2c-8.2 0-14.8-6.6-14.8-14.8 0-8.2 6.6-14.8 14.8-14.8 8.2 0 14.9 6.6 14.9 14.8 0 8.2-6.7 14.8-14.9 14.8z"/>
					<path id="Layer" class="s16" d="m292.5 106.4c0 8.2-6.6 14.8-14.8 14.8-8.2 0-14.8-6.6-14.8-14.8 0-8.2 6.6-14.8 14.8-14.8 8.2 0 14.8 6.6 14.8 14.8z"/>
				</g>
				<g id="Layer">
					<path id="Layer" class="s17" d="m64.3 58.6c0 8.2-6.6 14.8-14.8 14.8-8.2 0-14.9-6.6-14.9-14.8 0-8.2 6.7-14.8 14.9-14.8 8.2 0 14.8 6.6 14.8 14.8z"/>
					<path id="Layer" class="s18" d="m3.8 73.4c-8.2 0-14.8-6.6-14.8-14.8 0-8.2 6.6-14.8 14.8-14.8 8.2 0 14.9 6.6 14.9 14.8 0 8.2-6.7 14.8-14.9 14.8z"/>
					<path id="Layer" class="s19" d="m140.8 73.4c-8.2 0-14.9-6.6-14.9-14.8 0-8.2 6.7-14.8 14.9-14.8 8.2 0 14.8 6.6 14.8 14.8 0 8.2-6.6 14.8-14.8 14.8z"/>
					<path id="Layer" class="s20" d="m80.3 58.6c0-8.2 6.6-14.8 14.8-14.8 8.2 0 14.9 6.6 14.9 14.8 0 8.2-6.7 14.8-14.9 14.8-8.2 0-14.8-6.6-14.8-14.8z"/>
					<path id="Layer" class="s21" d="m246.9 58.6c0 8.2-6.6 14.8-14.8 14.8-8.2 0-14.9-6.6-14.9-14.8 0-8.2 6.7-14.8 14.9-14.8 8.2 0 14.8 6.6 14.8 14.8z"/>
					<path id="Layer" class="s22" d="m186.4 73.4c-8.2 0-14.8-6.6-14.8-14.8 0-8.2 6.6-14.8 14.8-14.8 8.2 0 14.8 6.6 14.8 14.8 0 8.2-6.6 14.8-14.8 14.8z"/>
					<path id="Layer" class="s23" d="m323.3 73.4c-8.2 0-14.8-6.6-14.8-14.8 0-8.2 6.6-14.8 14.8-14.8 8.2 0 14.9 6.6 14.9 14.8 0 8.2-6.7 14.8-14.9 14.8z"/>
					<path id="Layer" class="s24" d="m262.9 58.6c0-8.2 6.6-14.8 14.8-14.8 8.2 0 14.8 6.6 14.8 14.8 0 8.2-6.6 14.8-14.8 14.8-8.2 0-14.8-6.6-14.8-14.8z"/>
				</g>
				<g id="Layer">
					<path id="Layer" class="s25" d="m57.5 33.6c0-8.2 6.6-14.8 14.8-14.8 8.2 0 14.8 6.6 14.8 14.8 0 8.2-6.6 14.8-14.8 14.8-8.2 0-14.8-6.6-14.8-14.8z"/>
					<path id="Layer" class="s26" d="m26.7 18.8c8.2 0 14.8 6.6 14.8 14.8 0 8.2-6.6 14.8-14.8 14.8-8.2 0-14.9-6.6-14.9-14.8 0-8.2 6.7-14.8 14.9-14.8z"/>
					<path id="Layer" class="s27" d="m163.6 48.4c-8.2 0-14.8-6.6-14.8-14.8 0-8.2 6.6-14.8 14.8-14.8 8.2 0 14.8 6.6 14.8 14.8 0 8.2-6.6 14.8-14.8 14.8z"/>
					<path id="Layer" class="s28" d="m132.8 33.6c0 8.2-6.7 14.8-14.9 14.8-8.2 0-14.8-6.6-14.8-14.8 0-8.2 6.6-14.8 14.8-14.8 8.2 0 14.9 6.6 14.9 14.8z"/>
					<path id="Layer" class="s29" d="m240 33.6c0-8.2 6.7-14.8 14.9-14.8 8.2 0 14.8 6.6 14.8 14.8 0 8.2-6.6 14.8-14.8 14.8-8.2 0-14.9-6.6-14.9-14.8z"/>
					<path id="Layer" class="s30" d="m209.2 18.8c8.2 0 14.9 6.6 14.9 14.8 0 8.2-6.7 14.8-14.9 14.8-8.2 0-14.8-6.6-14.8-14.8 0-8.2 6.6-14.8 14.8-14.8z"/>
					<path id="Layer" class="s31" d="m346.2 48.4c-8.2 0-14.9-6.6-14.9-14.8 0-8.2 6.7-14.8 14.9-14.8 8.2 0 14.8 6.6 14.8 14.8 0 8.2-6.6 14.8-14.8 14.8z"/>
					<path id="Layer" class="s32" d="m315.4 33.6c0 8.2-6.7 14.8-14.9 14.8-8.2 0-14.8-6.6-14.8-14.8 0-8.2 6.6-14.8 14.8-14.8 8.2 0 14.9 6.6 14.9 14.8z"/>
				</g>
				<g id="Layer">
					<path id="Layer" class="s33" d="m57.5 129.2c0-8.2 6.6-14.8 14.8-14.8 8.2 0 14.8 6.6 14.8 14.8 0 8.2-6.6 14.8-14.8 14.8-8.2 0-14.8-6.6-14.8-14.8z"/>
					<path id="Layer" class="s34" d="m26.7 114.4c8.2 0 14.8 6.6 14.8 14.8 0 8.2-6.6 14.8-14.8 14.8-8.2 0-14.9-6.6-14.9-14.8 0-8.2 6.7-14.8 14.9-14.8z"/>
					<path id="Layer" class="s35" d="m163.6 144c-8.2 0-14.8-6.6-14.8-14.8 0-8.2 6.6-14.8 14.8-14.8 8.2 0 14.8 6.6 14.8 14.8 0 8.2-6.6 14.8-14.8 14.8z"/>
					<path id="Layer" class="s36" d="m132.8 129.2c0 8.2-6.7 14.8-14.9 14.8-8.2 0-14.8-6.6-14.8-14.8 0-8.2 6.6-14.8 14.8-14.8 8.2 0 14.9 6.6 14.9 14.8z"/>
					<path id="Layer" class="s37" d="m240 129.2c0-8.2 6.7-14.8 14.9-14.8 8.2 0 14.8 6.6 14.8 14.8 0 8.2-6.6 14.8-14.8 14.8-8.2 0-14.9-6.6-14.9-14.8z"/>
					<path id="Layer" class="s38" d="m209.2 114.4c8.2 0 14.9 6.6 14.9 14.8 0 8.2-6.7 14.8-14.9 14.8-8.2 0-14.8-6.6-14.8-14.8 0-8.2 6.6-14.8 14.8-14.8z"/>
					<path id="Layer" class="s39" d="m346.2 144c-8.2 0-14.9-6.6-14.9-14.8 0-8.2 6.7-14.8 14.9-14.8 8.2 0 14.8 6.6 14.8 14.8 0 8.2-6.6 14.8-14.8 14.8z"/>
					<path id="Layer" class="s40" d="m315.4 129.2c0 8.2-6.7 14.8-14.9 14.8-8.2 0-14.8-6.6-14.8-14.8 0-8.2 6.6-14.8 14.8-14.8 8.2 0 14.9 6.6 14.9 14.8z"/>
				</g>
				<g id="Layer">
					<path id="Layer" class="s41" d="m87.1 81.4c0 8.2-6.6 14.8-14.8 14.8-8.2 0-14.8-6.6-14.8-14.8 0-8.2 6.6-14.8 14.8-14.8 8.2 0 14.8 6.6 14.8 14.8z"/>
					<path id="Layer" class="s42" d="m26.7 96.2c-8.2 0-14.9-6.6-14.9-14.8 0-8.2 6.7-14.8 14.9-14.8 8.2 0 14.8 6.6 14.8 14.8 0 8.2-6.6 14.8-14.8 14.8z"/>
					<path id="Layer" class="s43" d="m163.6 96.2c-8.2 0-14.8-6.6-14.8-14.8 0-8.2 6.6-14.8 14.8-14.8 8.2 0 14.8 6.6 14.8 14.8 0 8.2-6.6 14.8-14.8 14.8z"/>
					<path id="Layer" class="s44" d="m103.1 81.4c0-8.2 6.6-14.8 14.8-14.8 8.2 0 14.9 6.6 14.9 14.8 0 8.2-6.7 14.8-14.9 14.8-8.2 0-14.8-6.6-14.8-14.8z"/>
					<path id="Layer" class="s45" d="m269.7 81.4c0 8.2-6.6 14.8-14.8 14.8-8.2 0-14.9-6.6-14.9-14.8 0-8.2 6.7-14.8 14.9-14.8 8.2 0 14.8 6.6 14.8 14.8z"/>
					<path id="Layer" class="s46" d="m209.2 96.2c-8.2 0-14.8-6.6-14.8-14.8 0-8.2 6.6-14.8 14.8-14.8 8.2 0 14.9 6.6 14.9 14.8 0 8.2-6.7 14.8-14.9 14.8z"/>
					<path id="Layer" class="s47" d="m346.2 96.2c-8.2 0-14.9-6.6-14.9-14.8 0-8.2 6.7-14.8 14.9-14.8 8.2 0 14.8 6.6 14.8 14.8 0 8.2-6.6 14.8-14.8 14.8z"/>
					<path id="Layer" class="s48" d="m285.7 81.4c0-8.2 6.6-14.8 14.8-14.8 8.2 0 14.9 6.6 14.9 14.8 0 8.2-6.7 14.8-14.9 14.8-8.2 0-14.8-6.6-14.8-14.8z"/>
				</g>
			</g>
		</g>
	</g>
</svg>